HIERARCHY
ROOT Hips
{
	OFFSET 0.00000 0.00000 0.00000
	CHANNELS 6 Xposition Yposition Zposition Yrotation Zrotation Xrotation 
	JOINT Lumbar
	{
		OFFSET 0 0 0
		CHANNELS 3 Zrotation Xrotation Yrotation
		JOINT Neck
		{
			OFFSET 0.00 0.2701 0.00
			CHANNELS 3 Zrotation Xrotation Yrotation
			End Site
			{
				OFFSET 0.00 0.1379 0.00
			}
		}
		JOINT RightShoulder
		{
			OFFSET 0.0119 0.2289 0.1181
			CHANNELS 3 Zrotation Xrotation Yrotation
			JOINT RightElbow
			{
				OFFSET 0.00 -0.1475 0.00
				CHANNELS 2 Zrotation Yrotation
				JOINT RightWrist
				{
					OFFSET 0.00 -0.1605 0.00
					CHANNELS 2 Zrotation Xrotation
					End Site
					{
						OFFSET 0.0040 -0.1068 0.0006
					}
				}
			}
		}
		JOINT LeftShoulder
		{
			OFFSET 0.0119 0.2289 -0.1181
			CHANNELS 3 Zrotation Xrotation Yrotation
			JOINT LeftElbow
			{
				OFFSET 0.00 -0.1475 0.00
				CHANNELS 2 Zrotation Yrotation
				JOINT LeftWrist
				{
					OFFSET 0.00 -0.1605 0.00
					CHANNELS 2 Zrotation Xrotation
					End Site
					{
						OFFSET 0.0040 -0.1068 -0.0006
					}
				}
			}
		}
	}
	JOINT RightHip
	{
		OFFSET 0.0316 -0.0424 0.0458
		CHANNELS 3 Zrotation Xrotation Yrotation
		JOINT RightKnee
		{
			OFFSET 0.00 -0.2438 0.00
			CHANNELS 1 Zrotation
			JOINT RightAnkle
			{
				OFFSET 0.00 -0.2449 0.00
				CHANNELS 3 Zrotation Xrotation Yrotation
				End Site
				{
					OFFSET 0.1237 -0.0542 0.0051
				}
			}
		}
	}
	JOINT LeftHip
	{
		OFFSET 0.0316 -0.0424 -0.0458
		CHANNELS 3 Zrotation Xrotation Yrotation
		JOINT LeftKnee
		{
			OFFSET 0.00 -0.2438 0.00
			CHANNELS 1 Zrotation
			JOINT LeftAnkle
			{
				OFFSET 0.00 -0.2449 0.00
				CHANNELS 3 Zrotation Xrotation Yrotation
				End Site
				{
					OFFSET 0.1237 -0.0542 -0.0051
				}
			}
		}
	}
}
MOTION
Frames: 13
Frame Time: 0.02
0.516 -0.20965 0.21782 -185.88083 36.75082 -2.5457 -22.02778 4.73592 -5.39054 -40.22364 5.03983 -2.11994 40.98425 2.66484 55.48624 23.22559 65.86267 44.80096 -4.35059 40.73863 10.19187 -55.63253 25.28234 -80.21941 49.10052 3.06064 118.44995 -8.55455 -2.15018 -134.61131 -19.58026 -0.34913 -2.9677 117.87551 4.35535 0.18842 -134.00985 -18.4369 1.50188 3.52135
0.51574 -0.20932 0.21773 -185.92856 37.08334 -2.43013 -22.00361 4.59236 -5.57035 -40.4296 5.20108 -2.11994 40.8244 3.02769 54.18891 22.63904 66.72405 44.42694 -4.28225 40.63828 10.24505 -55.63276 24.93092 -79.61145 48.51955 3.11656 117.91973 -8.45273 -2.22227 -134.38958 -19.66529 -0.35816 -2.97775 117.51162 4.35938 0.27834 -133.79257 -18.64413 1.48254 3.52164
0.51536 -0.20888 0.21758 -186.00551 37.41677 -2.25899 -22.04947 4.4035 -5.7583 -40.61478 5.36874 -2.11994 40.60367 3.42037 52.54536 22.10664 67.92762 44.15901 -4.19295 40.52535 10.31836 -55.63312 24.63776 -78.89932 47.97565 3.18501 117.39515 -8.32528 -2.28797 -134.17713 -19.71133 -0.36927 -2.98754 117.17734 4.36752 0.37939 -133.57496 -18.84073 1.45768 3.51848
0.51505 -0.2085 0.21746 -186.06814 37.74511 -2.11722 -22.06221 4.2402 -5.9377 -40.80269 5.53058 -2.11994 40.41777 3.78751 51.11417 21.56295 68.93706 43.85157 -4.12152 40.42045 10.38214 -55.6334 24.32801 -78.25446 47.43053 3.24421 116.87788 -8.2128 -2.35538 -133.96644 -19.77399 -0.37911 -2.99713 116.83531 4.37341 0.46967 -133.3643 -19.03647 1.43595 3.51694
0.51468 -0.20807 0.21732 -186.13575 38.09481 -1.95821 -22.08055 4.05547 -6.13799 -41.02392 5.70776 -2.11994 40.20296 4.20738 49.45093 20.95728 70.11613 43.50173 -4.01441 40.30529 10.44728 -55.63373 23.97237 -77.52343 46.80944 3.31813 116.31569 -8.0869 -2.4296 -133.73032 -19.84064 -0.39038 -3.00803 116.46651 4.38094 0.58303 -133.12473 -19.25626 1.41158 3.51521
0.5144 -0.20772 0.2172 -186.19982 38.3992 -1.82159 -22.10381 3.90463 -6.29639 -41.16866 5.85262 -2.11994 40.03336 4.52389 48.18778 20.49545 71.02173 43.26707 -3.97646 40.20875 10.51415 -55.634 23.72712 -76.94763 46.35855 3.36481 115.84988 -7.98267 -2.48763 -133.5494 -19.88989 -0.39917 -3.01618 116.16166 4.38609 0.65167 -132.94521 -19.42352 1.39138 3.51303
0.5144 -0.20761 0.21712 -186.24528 38.58314 -1.76379 -22.12377 3.86045 -6.33895 -41.11019 5.91566 -2.11994 40.00398 4.54516 48.12576 20.4218 71.07457 43.33108 -4.1388 40.16623 10.58474 -55.63405 23.78035 -76.82973 46.37724 3.32898 115.64597 -7.94413 -2.50002 -133.51931 -19.90167 -0.40017 -3.01655 116.02477 4.38284 0.59025 -132.93387 -19.44691 1.38432 3.51047
0.51449 -0.20759 0.21706 -186.28635 38.72038 -1.72985 -22.14627 3.8517 -6.33871 -40.97427 5.94424 -2.11994 40.0219 4.46152 48.47628 20.49123 70.84184 43.50708 -4.37076 40.14302 10.65578 -55.63402 23.94197 -76.87122 46.56592 3.26606 115.53984 -7.92829 -2.49646 -133.54439 -19.89719 -0.39867 -3.01422 115.95185 4.3772 0.48425 -132.98265 -19.41801 1.38159 3.50755
0.51453 -0.20752 0.21699 -186.33045 38.87556 -1.68271 -22.16737 3.82547 -6.35677 -40.87123 5.982 -2.11994 40.01766 4.42725 48.63038 20.49308 70.74786 43.62831 -4.56832 40.11137 10.72406 -55.63403 24.04939 -76.83773 46.67251 3.21831 115.39121 -7.90225 -2.50159 -133.54374 -19.89957 -0.39858 -3.0133 115.85091 4.37315 0.40131 -133.0024 -19.41397 1.37667 3.50474
0.51458 -0.20747 0.21692 -186.37131 39.04452 -1.64342 -22.1917 3.80332 -6.37986 -40.7773 6.04616 -2.11994 40.01417 4.38695 48.81009 20.50701 70.62817 43.76923 -4.77703 40.07793 10.80359 -55.63403 24.17928 -76.81163 46.80028 3.15898 115.23445 -7.87484 -2.50063 -133.54603 -19.90284 -0.39742 -3.01162 115.74649 4.36704 0.30698 -133.02916 -19.40503 1.37246 3.50204
0.51464 -0.20741 0.21685 -186.41736 39.17383 -1.59436 -22.20932 3.78187 -6.38237 -40.64628 6.04856 -2.11994 40.02111 4.33385 49.03897 20.52968 70.48964 43.89469 -4.97899 40.0529 10.85984 -55.63403 24.28779 -76.80895 46.92429 3.11715 115.1179 -7.85598 -2.50844 -133.55536 -19.90086 -0.39784 -3.01087 115.66416 4.36468 0.22554 -133.05582 -19.39391 1.36791 3.49908
0.51471 -0.20733 0.21677 -186.47972 39.20343 -1.51141 -22.20443 3.7524 -6.33682 -40.43143 5.87554 -2.11994 40.04551 4.27129 49.30444 20.53627 70.36744 43.94715 -5.14845 40.04691 10.84903 -55.63403 24.30701 -76.83618 46.99294 3.13035 115.08771 -7.85552 -2.54608 -133.56919 -19.88904 -0.40338 -3.0135 115.62725 4.37256 0.19142 -133.06591 -19.39045 1.36123 3.49542
0.51479 -0.20725 0.21669 -186.54704 39.19492 -1.41846 -22.19284 3.72302 -6.27228 -40.18212 5.64386 -2.11994 40.07897 4.19927 49.6067 20.54743 70.23456 43.98016 -5.30831 40.04863 10.81513 -55.63404 24.30139 -76.88141 47.05236 3.16193 115.09485 -7.86303 -2.59287 -133.58849 -19.87257 -0.41054 -3.01712 115.61028 4.38438 0.17154 -133.07425 -19.38642 1.35414 3.49153
